<svg width="195" height="12" viewBox="0 0 195 12" fill="none" xmlns="http://www.w3.org/2000/svg">
<path d="M0.169844 9V0.719999H5.56984V1.632H1.17784V4.2H5.20984V5.112H1.17784V8.088H5.56984V9H0.169844ZM8.68797 9V2.76H12.048C13.248 2.76 13.848 3.36 13.848 4.56V9H12.888V4.44C12.888 3.88 12.608 3.6 12.048 3.6H9.64797V9H8.68797ZM17.1832 7.2V4.56C17.1832 3.36 17.7832 2.76 18.9832 2.76H21.3352L21.8152 3.12V3.6H18.9832C18.4232 3.6 18.1432 3.88 18.1432 4.44V7.32C18.1432 7.88 18.4232 8.16 18.9832 8.16H21.8152V8.64L21.3352 9H18.9832C17.7832 9 17.1832 8.4 17.1832 7.2ZM24.8381 9V3.48C25.1181 3 25.6381 2.76 26.3981 2.76H27.5981L28.0781 3.12V3.6H26.5301C26.1941 3.6 25.9501 3.692 25.7981 3.876V9H24.8381ZM30.1909 2.928L30.2989 2.76H31.1269L32.9509 8.16H33.1909L35.0149 2.76H35.8429L35.9509 2.928L33.0229 11.4H32.1949L32.0869 11.232L32.8909 9H32.2909L30.1909 2.928ZM38.7053 11.4V2.76H42.0653C43.2653 2.76 43.8653 3.36 43.8653 4.56V7.2C43.8653 8.4 43.2653 9 42.0653 9H39.6653V11.4H38.7053ZM39.6653 8.16H42.0653C42.6253 8.16 42.9053 7.88 42.9053 7.32V4.44C42.9053 3.88 42.6253 3.6 42.0653 3.6H39.6653V8.16ZM47.2017 7.2V0.719999H48.1617V2.76H50.4417V3.6H48.1617V7.32C48.1617 7.88 48.4417 8.16 49.0017 8.16H50.5617V8.64L50.0817 9H49.0017C47.8017 9 47.2017 8.4 47.2017 7.2ZM53.4129 7.2V4.56C53.4129 3.36 54.0129 2.76 55.2129 2.76H56.7729C57.9729 2.76 58.5729 3.36 58.5729 4.56V6.252H54.3729V7.32C54.3729 7.88 54.6529 8.16 55.2129 8.16H58.3329V8.64L57.8529 9H55.2129C54.0129 9 53.4129 8.4 53.4129 7.2ZM54.3729 5.472H57.6129V4.44C57.6129 3.88 57.3329 3.6 56.7729 3.6H55.2129C54.6529 3.6 54.3729 3.88 54.3729 4.44V5.472ZM61.8635 7.2V4.56C61.8635 3.36 62.4635 2.76 63.6635 2.76H66.0635V0.12H67.0235V9H63.6635C62.4635 9 61.8635 8.4 61.8635 7.2ZM62.8235 7.32C62.8235 7.88 63.1035 8.16 63.6635 8.16H66.0635V3.6H63.6635C63.1035 3.6 62.8235 3.88 62.8235 4.44V7.32ZM75.0667 9V0.719999H76.3987L79.1707 6.6L81.9307 0.719999H83.2627V9H82.2547V2.232L79.6387 7.8H78.6907L76.0747 2.232V9H75.0667ZM86.7701 7.2V4.56C86.7701 3.36 87.3701 2.76 88.5701 2.76H90.1301C91.3301 2.76 91.9301 3.36 91.9301 4.56V6.252H87.7301V7.32C87.7301 7.88 88.0101 8.16 88.5701 8.16H91.6901V8.64L91.2101 9H88.5701C87.3701 9 86.7701 8.4 86.7701 7.2ZM87.7301 5.472H90.9701V4.44C90.9701 3.88 90.6901 3.6 90.1301 3.6H88.5701C88.0101 3.6 87.7301 3.88 87.7301 4.44V5.472ZM95.0767 8.64V8.16H97.8487C98.4007 8.16 98.6767 7.88 98.6767 7.32C98.6767 6.752 98.4567 6.432 98.0167 6.36L96.5887 6.12C95.5807 5.952 95.0767 5.404 95.0767 4.476C95.0767 3.332 95.6767 2.76 96.8767 2.76H98.8807L99.3607 3.12V3.6H96.8647C96.3047 3.6 96.0247 3.88 96.0247 4.44C96.0247 4.944 96.2607 5.236 96.7327 5.316L98.1607 5.556C99.1527 5.716 99.6487 6.288 99.6487 7.272C99.6487 8.424 99.0407 9 97.8247 9H95.5567L95.0767 8.64ZM102.637 8.64V8.16H105.409C105.961 8.16 106.237 7.88 106.237 7.32C106.237 6.752 106.017 6.432 105.577 6.36L104.149 6.12C103.141 5.952 102.637 5.404 102.637 4.476C102.637 3.332 103.237 2.76 104.437 2.76H106.441L106.921 3.12V3.6H104.425C103.865 3.6 103.585 3.88 103.585 4.44C103.585 4.944 103.821 5.236 104.293 5.316L105.721 5.556C106.713 5.716 107.209 6.288 107.209 7.272C107.209 8.424 106.601 9 105.385 9H103.117L102.637 8.64ZM111.913 9C110.705 9 110.101 8.396 110.101 7.188C110.101 5.98 110.705 5.376 111.913 5.376H114.109V4.44C114.109 3.88 113.829 3.6 113.269 3.6H110.701V3.12L111.181 2.76H113.269C114.469 2.76 115.069 3.36 115.069 4.56V9H111.913ZM111.061 7.32C111.061 7.88 111.341 8.16 111.901 8.16H114.109V6.156H111.901C111.341 6.156 111.061 6.436 111.061 6.996V7.32ZM118.405 7.2V4.56C118.405 3.36 119.005 2.76 120.205 2.76H123.565V9.6C123.565 10.8 122.965 11.4 121.765 11.4H119.365L118.885 11.04V10.56H121.765C122.325 10.56 122.605 10.28 122.605 9.72V9H120.205C119.005 9 118.405 8.4 118.405 7.2ZM119.365 7.32C119.365 7.88 119.645 8.16 120.205 8.16H122.605V3.6H120.205C119.645 3.6 119.365 3.88 119.365 4.44V7.32ZM126.997 1.596V0.468H128.053V1.596H126.997ZM127.045 9V2.76H128.005V9H127.045ZM131.488 9V2.76H134.848C136.048 2.76 136.648 3.36 136.648 4.56V9H135.688V4.44C135.688 3.88 135.408 3.6 134.848 3.6H132.448V9H131.488ZM139.983 7.2V4.56C139.983 3.36 140.583 2.76 141.783 2.76H145.143V9.6C145.143 10.8 144.543 11.4 143.343 11.4H140.943L140.463 11.04V10.56H143.343C143.903 10.56 144.183 10.28 144.183 9.72V9H141.783C140.583 9 139.983 8.4 139.983 7.2ZM140.943 7.32C140.943 7.88 141.223 8.16 141.783 8.16H144.183V3.6H141.783C141.223 3.6 140.943 3.88 140.943 4.44V7.32ZM152.466 0.935999L152.622 0.719999H153.426L155.154 8.088H155.31L157.122 1.632H158.13L159.93 8.088H160.098L161.826 0.719999H162.63L162.786 0.935999L160.878 9H159.21L157.626 3.264L156.042 9H154.374L152.466 0.935999ZM166.778 9C165.57 9 164.966 8.396 164.966 7.188C164.966 5.98 165.57 5.376 166.778 5.376H168.974V4.44C168.974 3.88 168.694 3.6 168.134 3.6H165.566V3.12L166.046 2.76H168.134C169.334 2.76 169.934 3.36 169.934 4.56V9H166.778ZM165.926 7.32C165.926 7.88 166.206 8.16 166.766 8.16H168.974V6.156H166.766C166.206 6.156 165.926 6.436 165.926 6.996V7.32ZM173.318 7.296V0.12H174.278V7.392C174.278 7.944 174.558 8.236 175.118 8.268V9.096C173.918 9.096 173.318 8.496 173.318 7.296ZM177.995 7.296V0.12H178.955V7.392C178.955 7.944 179.235 8.236 179.795 8.268V9.096C178.595 9.096 177.995 8.496 177.995 7.296ZM182.624 7.2V4.56C182.624 3.36 183.224 2.76 184.424 2.76H185.984C187.184 2.76 187.784 3.36 187.784 4.56V6.252H183.584V7.32C183.584 7.88 183.864 8.16 184.424 8.16H187.544V8.64L187.064 9H184.424C183.224 9 182.624 8.4 182.624 7.2ZM183.584 5.472H186.824V4.44C186.824 3.88 186.544 3.6 185.984 3.6H184.424C183.864 3.6 183.584 3.88 183.584 4.44V5.472ZM191.123 7.2V0.719999H192.083V2.76H194.363V3.6H192.083V7.32C192.083 7.88 192.363 8.16 192.923 8.16H194.483V8.64L194.003 9H192.923C191.723 9 191.123 8.4 191.123 7.2Z" fill="black"/>
<path d="M0.169844 9V0.719999H5.56984V1.632H1.17784V4.2H5.20984V5.112H1.17784V8.088H5.56984V9H0.169844ZM8.68797 9V2.76H12.048C13.248 2.76 13.848 3.36 13.848 4.56V9H12.888V4.44C12.888 3.88 12.608 3.6 12.048 3.6H9.64797V9H8.68797ZM17.1832 7.2V4.56C17.1832 3.36 17.7832 2.76 18.9832 2.76H21.3352L21.8152 3.12V3.6H18.9832C18.4232 3.6 18.1432 3.88 18.1432 4.44V7.32C18.1432 7.88 18.4232 8.16 18.9832 8.16H21.8152V8.64L21.3352 9H18.9832C17.7832 9 17.1832 8.4 17.1832 7.2ZM24.8381 9V3.48C25.1181 3 25.6381 2.76 26.3981 2.76H27.5981L28.0781 3.12V3.6H26.5301C26.1941 3.6 25.9501 3.692 25.7981 3.876V9H24.8381ZM30.1909 2.928L30.2989 2.76H31.1269L32.9509 8.16H33.1909L35.0149 2.76H35.8429L35.9509 2.928L33.0229 11.4H32.1949L32.0869 11.232L32.8909 9H32.2909L30.1909 2.928ZM38.7053 11.4V2.76H42.0653C43.2653 2.76 43.8653 3.36 43.8653 4.56V7.2C43.8653 8.4 43.2653 9 42.0653 9H39.6653V11.4H38.7053ZM39.6653 8.16H42.0653C42.6253 8.16 42.9053 7.88 42.9053 7.32V4.44C42.9053 3.88 42.6253 3.6 42.0653 3.6H39.6653V8.16ZM47.2017 7.2V0.719999H48.1617V2.76H50.4417V3.6H48.1617V7.32C48.1617 7.88 48.4417 8.16 49.0017 8.16H50.5617V8.64L50.0817 9H49.0017C47.8017 9 47.2017 8.4 47.2017 7.2ZM53.4129 7.2V4.56C53.4129 3.36 54.0129 2.76 55.2129 2.76H56.7729C57.9729 2.76 58.5729 3.36 58.5729 4.56V6.252H54.3729V7.32C54.3729 7.88 54.6529 8.16 55.2129 8.16H58.3329V8.64L57.8529 9H55.2129C54.0129 9 53.4129 8.4 53.4129 7.2ZM54.3729 5.472H57.6129V4.44C57.6129 3.88 57.3329 3.6 56.7729 3.6H55.2129C54.6529 3.6 54.3729 3.88 54.3729 4.44V5.472ZM61.8635 7.2V4.56C61.8635 3.36 62.4635 2.76 63.6635 2.76H66.0635V0.12H67.0235V9H63.6635C62.4635 9 61.8635 8.4 61.8635 7.2ZM62.8235 7.32C62.8235 7.88 63.1035 8.16 63.6635 8.16H66.0635V3.6H63.6635C63.1035 3.6 62.8235 3.88 62.8235 4.44V7.32ZM75.0667 9V0.719999H76.3987L79.1707 6.6L81.9307 0.719999H83.2627V9H82.2547V2.232L79.6387 7.8H78.6907L76.0747 2.232V9H75.0667ZM86.7701 7.2V4.56C86.7701 3.36 87.3701 2.76 88.5701 2.76H90.1301C91.3301 2.76 91.9301 3.36 91.9301 4.56V6.252H87.7301V7.32C87.7301 7.88 88.0101 8.16 88.5701 8.16H91.6901V8.64L91.2101 9H88.5701C87.3701 9 86.7701 8.4 86.7701 7.2ZM87.7301 5.472H90.9701V4.44C90.9701 3.88 90.6901 3.6 90.1301 3.6H88.5701C88.0101 3.6 87.7301 3.88 87.7301 4.44V5.472ZM95.0767 8.64V8.16H97.8487C98.4007 8.16 98.6767 7.88 98.6767 7.32C98.6767 6.752 98.4567 6.432 98.0167 6.36L96.5887 6.12C95.5807 5.952 95.0767 5.404 95.0767 4.476C95.0767 3.332 95.6767 2.76 96.8767 2.76H98.8807L99.3607 3.12V3.6H96.8647C96.3047 3.6 96.0247 3.88 96.0247 4.44C96.0247 4.944 96.2607 5.236 96.7327 5.316L98.1607 5.556C99.1527 5.716 99.6487 6.288 99.6487 7.272C99.6487 8.424 99.0407 9 97.8247 9H95.5567L95.0767 8.64ZM102.637 8.64V8.16H105.409C105.961 8.16 106.237 7.88 106.237 7.32C106.237 6.752 106.017 6.432 105.577 6.36L104.149 6.12C103.141 5.952 102.637 5.404 102.637 4.476C102.637 3.332 103.237 2.76 104.437 2.76H106.441L106.921 3.12V3.6H104.425C103.865 3.6 103.585 3.88 103.585 4.44C103.585 4.944 103.821 5.236 104.293 5.316L105.721 5.556C106.713 5.716 107.209 6.288 107.209 7.272C107.209 8.424 106.601 9 105.385 9H103.117L102.637 8.64ZM111.913 9C110.705 9 110.101 8.396 110.101 7.188C110.101 5.98 110.705 5.376 111.913 5.376H114.109V4.44C114.109 3.88 113.829 3.6 113.269 3.6H110.701V3.12L111.181 2.76H113.269C114.469 2.76 115.069 3.36 115.069 4.56V9H111.913ZM111.061 7.32C111.061 7.88 111.341 8.16 111.901 8.16H114.109V6.156H111.901C111.341 6.156 111.061 6.436 111.061 6.996V7.32ZM118.405 7.2V4.56C118.405 3.36 119.005 2.76 120.205 2.76H123.565V9.6C123.565 10.8 122.965 11.4 121.765 11.4H119.365L118.885 11.04V10.56H121.765C122.325 10.56 122.605 10.28 122.605 9.72V9H120.205C119.005 9 118.405 8.4 118.405 7.2ZM119.365 7.32C119.365 7.88 119.645 8.16 120.205 8.16H122.605V3.6H120.205C119.645 3.6 119.365 3.88 119.365 4.44V7.32ZM126.997 1.596V0.468H128.053V1.596H126.997ZM127.045 9V2.76H128.005V9H127.045ZM131.488 9V2.76H134.848C136.048 2.76 136.648 3.36 136.648 4.56V9H135.688V4.44C135.688 3.88 135.408 3.6 134.848 3.6H132.448V9H131.488ZM139.983 7.2V4.56C139.983 3.36 140.583 2.76 141.783 2.76H145.143V9.6C145.143 10.8 144.543 11.4 143.343 11.4H140.943L140.463 11.04V10.56H143.343C143.903 10.56 144.183 10.28 144.183 9.72V9H141.783C140.583 9 139.983 8.4 139.983 7.2ZM140.943 7.32C140.943 7.88 141.223 8.16 141.783 8.16H144.183V3.6H141.783C141.223 3.6 140.943 3.88 140.943 4.44V7.32ZM152.466 0.935999L152.622 0.719999H153.426L155.154 8.088H155.31L157.122 1.632H158.13L159.93 8.088H160.098L161.826 0.719999H162.63L162.786 0.935999L160.878 9H159.21L157.626 3.264L156.042 9H154.374L152.466 0.935999ZM166.778 9C165.57 9 164.966 8.396 164.966 7.188C164.966 5.98 165.57 5.376 166.778 5.376H168.974V4.44C168.974 3.88 168.694 3.6 168.134 3.6H165.566V3.12L166.046 2.76H168.134C169.334 2.76 169.934 3.36 169.934 4.56V9H166.778ZM165.926 7.32C165.926 7.88 166.206 8.16 166.766 8.16H168.974V6.156H166.766C166.206 6.156 165.926 6.436 165.926 6.996V7.32ZM173.318 7.296V0.12H174.278V7.392C174.278 7.944 174.558 8.236 175.118 8.268V9.096C173.918 9.096 173.318 8.496 173.318 7.296ZM177.995 7.296V0.12H178.955V7.392C178.955 7.944 179.235 8.236 179.795 8.268V9.096C178.595 9.096 177.995 8.496 177.995 7.296ZM182.624 7.2V4.56C182.624 3.36 183.224 2.76 184.424 2.76H185.984C187.184 2.76 187.784 3.36 187.784 4.56V6.252H183.584V7.32C183.584 7.88 183.864 8.16 184.424 8.16H187.544V8.64L187.064 9H184.424C183.224 9 182.624 8.4 182.624 7.2ZM183.584 5.472H186.824V4.44C186.824 3.88 186.544 3.6 185.984 3.6H184.424C183.864 3.6 183.584 3.88 183.584 4.44V5.472ZM191.123 7.2V0.719999H192.083V2.76H194.363V3.6H192.083V7.32C192.083 7.88 192.363 8.16 192.923 8.16H194.483V8.64L194.003 9H192.923C191.723 9 191.123 8.4 191.123 7.2Z" fill="url(#paint0_linear_0_4818)"/>
<defs>
<linearGradient id="paint0_linear_0_4818" x1="-0.99994" y1="5.4999" x2="195" y2="5.4999" gradientUnits="userSpaceOnUse">
<stop stop-color="#6C481D"/>
<stop offset="0.28" stop-color="#EBB659"/>
<stop offset="0.63" stop-color="#ECB44D"/>
<stop offset="1" stop-color="#715120"/>
</linearGradient>   
</defs>
</svg>
